<mxfile host="app.diagrams.net" modified="2024-05-11T08:20:32.499Z" agent="Mozilla/5.0 (Windows NT 10.0; Win64; x64) AppleWebKit/537.36 (KHTML, like Gecko) Chrome/120.0.0.0 Safari/537.36" version="24.4.0" etag="Fk482AvQFI3S4zr3UvL6" type="github">
  <diagram name="第 1 页" id="lmom1o2uZInHA79uL2Hz">
    <mxGraphModel>
      <root>
        <mxCell id="0" />
        <mxCell id="1" parent="0" />
      </root>
    </mxGraphModel>
  </diagram>
</mxfile>
